<?xml version="1.0" encoding="utf-8"?>
<!-- Generator: Adobe Illustrator 15.0.0, SVG Export Plug-In . SVG Version: 6.00 Build 0)  -->
<!DOCTYPE svg PUBLIC "-//W3C//DTD SVG 1.1//EN" "http://www.w3.org/Graphics/SVG/1.1/DTD/svg11.dtd">
<svg version="1.1" id="Layer_1" xmlns="http://www.w3.org/2000/svg" xmlns:xlink="http://www.w3.org/1999/xlink" x="0px" y="0px"
	 width="206.923px" height="52.404px" viewBox="0 0 206.923 52.404" enable-background="new 0 0 206.923 52.404"
	 xml:space="preserve">
<g>
	<path fill="#E75112" d="M51.187,44.481V6.705c0,0,0-6.705-6.705-6.705H20.517c-1.299,0-19.424,8.028-9.378,18.723
		c2.517,2.166,5.293,3.672,9.915,3.438C33.863,20.77,33.125,12.085,31.98,10.567c-0.214-0.323-0.574-0.42-0.293-0.693
		c0.332,0.023,0.39,0.321,0.667,0.4c0.038,0.104,0.064,0.22,0.133,0.293c0.078-0.023-0.035-0.067,0-0.134
		c0.1-0.021,0.059,0.102,0.133,0.105c0.052-0.01,0.002-0.121,0.107-0.079c0.334,0.163,0.185,0.82,0.507,0.986
		c-0.062,0.06,0.008,0.104,0,0.187c0.066,0.045,0.092,0.069,0.159,0.16c-0.004-0.077,0.035-0.265,0.028-0.427
		c0.116-0.009,0.119,0.234,0.105,0.267c0.184,0.198,0.284,0.481,0.347,0.8c0.075,0.012-0.021-0.146,0.053-0.134
		c0.281,0.281,0.129,0.754,0.453,0.906c0.114,0.016,0.021-0.175,0.133-0.158c-0.002,0.228,0.473,1.513,0.513,2.692
		c0.223,6.521-6.719,11.165-15.814,10.913c-0.377,1.087-0.329,5.577-0.37,6.729c15.583-1.465,14.549-0.717,14.58-0.588
		c-0.216,0.117-0.908,0.321-1.131,0.442c0.02,0.06,0.193,0.083,0.737,0.028c-0.419,0.194-0.868,0.307-1.313,0.413
		c0.37,0.118,0.8,0.08,0.957,0.116c-0.592,0.402-1.551,0.347-1.592,0.44c0.6,0.098,0.943,0.126,0.943,0.126
		c-0.545,0.363-0.5,0.228-1.53,0.398c-0.422,0.069-0.01,0.195,1.094,0.069c-0.964,0.453-2.33,2.138-12.851,2.365
		c-0.066,1.091,0.029,5.654-0.8,8.235c-0.129,0.323-0.213,0.639-0.213,0.639l-0.299,0.747c0,0-0.188-0.5-0.207-0.562
		c-0.128,0.331-0.267,0.934-0.267,0.934s-0.062,0.536-0.084,0.578c-0.053,0.039-0.195-0.273-0.236-0.258
		c-0.055,0.06-0.213,0.4-0.213,0.4s-0.054-0.201,0-0.32c-0.105-0.016-0.159,0.106-0.159,0.106s-0.026-0.599,0.026-0.905
		c-0.12,0.507-0.221,1.225-0.373,1.784c-0.086-0.029-0.177-0.333-0.177-0.333l-0.143-0.946c0,0,0.048,0.181-0.192,0.96
		c0.056-4.848-0.81-7.48-0.581-11.38C7.589,35.7,6.958,33.561,6.955,33.46c2.129-0.571,1.447-0.867,8.049-0.133
		c0-1.673,0.307-3.807,0.374-5.624c0.019-0.555,0.07-1.093,0-1.626c-0.371-0.244-10.635-3.661-10.635-12.632
		c0-8.852,9.305-13.424,9.345-13.445H6.706C6.706,0,0,0,0,6.705v37.776c0,0,0,6.705,6.706,6.705h37.776
		C44.482,51.187,51.187,51.187,51.187,44.481"/>
	<path fill="#E75112" d="M196.981,14.675c0.832,0.517,2.497,0.966,4.117,0.966c3.892,0,5.737-2.112,5.737-4.562
		c0-2.18-1.261-3.506-3.893-4.494c-2.024-0.787-2.903-1.326-2.903-2.495c0-0.898,0.743-1.82,2.498-1.82
		c1.417,0,2.476,0.427,3.037,0.719l0.653-2.224c-0.788-0.405-1.98-0.764-3.623-0.764c-3.307,0-5.377,1.864-5.377,4.358
		c0,2.181,1.598,3.506,4.117,4.405c1.913,0.696,2.678,1.37,2.678,2.517c0,1.236-0.99,2.067-2.745,2.067
		c-1.418,0-2.79-0.449-3.667-0.966L196.981,14.675z M191.716,15.394h2.767V0.248h-2.767V15.394z M189.669,15.394l-4.612-7.753
		l4.432-7.393h-3.172l-1.62,3.123c-0.473,0.922-0.788,1.596-1.192,2.54h-0.067c-0.382-0.854-0.742-1.597-1.237-2.54l-1.643-3.123
		h-3.195l4.343,7.482l-4.5,7.663h3.173l1.508-3.011c0.606-1.169,1.012-1.979,1.372-2.854h0.045c0.45,0.876,0.877,1.686,1.529,2.854
		l1.62,3.011H189.669z M167.981,9.012l1.17-3.731c0.247-0.897,0.495-1.954,0.72-2.831h0.045c0.226,0.877,0.473,1.91,0.765,2.831
		l1.192,3.731H167.981z M172.323,11.102l1.372,4.292h2.993L171.76,0.248h-3.532l-4.859,15.146h2.857l1.305-4.292H172.323z
		 M154.28,2.359c0.271-0.066,0.832-0.135,1.71-0.135c1.8,0,2.947,0.787,2.947,2.427c0,1.506-1.147,2.495-3.015,2.495h-1.643V2.359z
		 M151.535,15.394h2.745V9.169h1.396c1.575,0.045,2.271,0.674,2.722,2.651c0.405,1.889,0.787,3.124,1.012,3.573h2.835
		c-0.292-0.584-0.696-2.337-1.191-4.225c-0.36-1.46-1.014-2.518-2.115-2.921V8.18c1.44-0.494,2.767-1.82,2.767-3.775
		c0-1.303-0.472-2.359-1.305-3.056c-1.035-0.854-2.497-1.214-4.679-1.214c-1.599,0-3.128,0.135-4.186,0.337V15.394z M141.703,2.404
		c0.293-0.066,0.833-0.135,1.599-0.135c1.912,0,3.082,0.877,3.082,2.562c0,1.753-1.261,2.787-3.33,2.787
		c-0.562,0-0.99-0.023-1.351-0.136V2.404z M138.959,15.394h2.743V9.664c0.384,0.089,0.833,0.111,1.351,0.111
		c1.958,0,3.668-0.539,4.792-1.641c0.833-0.809,1.283-1.978,1.283-3.415c0-1.416-0.585-2.607-1.485-3.349
		c-0.967-0.81-2.43-1.236-4.455-1.236c-1.845,0-3.217,0.135-4.229,0.314V15.394z M126.292,15.394V9.978
		c0-2.494-0.046-4.494-0.157-6.449l0.09-0.022c0.742,1.708,1.731,3.551,2.699,5.214l3.96,6.674h2.88V0.248h-2.565v5.28
		c0,2.314,0.045,4.27,0.248,6.292h-0.045c-0.698-1.641-1.598-3.393-2.588-5.078L126.9,0.248h-3.173v15.146H126.292z M120.645,6.428
		h-5.715V2.517h6.053V0.248h-8.82v15.146h9.157v-2.27h-6.39V8.675h5.715V6.428z M97.157,0.248v8.674
		c0,4.764,2.272,6.719,5.782,6.719c3.646,0,6.052-2.067,6.052-6.741V0.248h-2.767v8.831c0,2.967-1.192,4.337-3.195,4.337
		c-1.867,0-3.105-1.37-3.105-4.337V0.248H97.157z M87.078,9.012l1.17-3.731c0.247-0.897,0.495-1.954,0.72-2.831h0.045
		c0.225,0.877,0.472,1.91,0.765,2.831l1.192,3.731H87.078z M91.42,11.102l1.373,4.292h2.992L90.858,0.248h-3.532l-4.86,15.146h2.857
		l1.305-4.292H91.42z M73.377,2.359c0.27-0.066,0.833-0.135,1.71-0.135c1.8,0,2.947,0.787,2.947,2.427
		c0,1.506-1.147,2.495-3.014,2.495h-1.643V2.359z M70.632,15.394h2.745V9.169h1.395c1.575,0.045,2.272,0.674,2.722,2.651
		c0.405,1.889,0.788,3.124,1.013,3.573h2.835c-0.293-0.584-0.698-2.337-1.193-4.225c-0.36-1.46-1.012-2.518-2.115-2.921V8.18
		c1.44-0.494,2.768-1.82,2.768-3.775c0-1.303-0.473-2.359-1.305-3.056c-1.035-0.854-2.498-1.214-4.68-1.214
		c-1.597,0-3.127,0.135-4.185,0.337V15.394z M59.181,15.394h2.767v-6.45h5.58V6.696h-5.58v-4.18h6.007V0.248h-8.774V15.394z"/>
	<path fill="#4D4D4D" d="M204.096,23.345v0.969h-0.691v1.191h0.691v2.13c0,0.734,0.147,1.234,0.444,1.543
		c0.267,0.265,0.701,0.446,1.222,0.446c0.446,0,0.839-0.064,1.041-0.139l-0.011-1.223c-0.148,0.032-0.255,0.043-0.479,0.043
		c-0.478,0-0.637-0.288-0.637-0.916v-1.885h1.158v-1.191h-1.158v-1.404L204.096,23.345z M199.262,23.345v0.969h-0.69v1.191h0.69
		v2.13c0,0.734,0.148,1.234,0.446,1.543c0.266,0.265,0.7,0.446,1.221,0.446c0.446,0,0.839-0.064,1.041-0.139l-0.011-1.223
		c-0.148,0.032-0.256,0.043-0.479,0.043c-0.478,0-0.637-0.288-0.637-0.916v-1.885h1.158v-1.191h-1.158v-1.404L199.262,23.345z
		 M193.727,26.326c0.042-0.428,0.319-1.056,0.999-1.056c0.744,0,0.914,0.66,0.914,1.056H193.727z M197.083,27.431
		c0.021-0.117,0.054-0.361,0.054-0.637c0-1.289-0.637-2.598-2.315-2.598c-1.806,0-2.624,1.457-2.624,2.777
		c0,1.629,1.009,2.65,2.772,2.65c0.702,0,1.349-0.106,1.88-0.329l-0.212-1.097c-0.436,0.149-0.881,0.225-1.435,0.225
		c-0.755,0-1.424-0.32-1.467-0.992H197.083z M187.939,23.345v0.969h-0.691v1.191h0.691v2.13c0,0.734,0.148,1.234,0.445,1.543
		c0.266,0.265,0.701,0.446,1.221,0.446c0.446,0,0.839-0.064,1.041-0.139l-0.011-1.223c-0.148,0.032-0.255,0.043-0.479,0.043
		c-0.478,0-0.637-0.288-0.637-0.916v-1.885h1.158v-1.191h-1.158v-1.404L187.939,23.345z M181.873,29.263
		c0.394,0.212,0.998,0.372,1.678,0.372c1.487,0,2.242-0.712,2.242-1.691c-0.012-0.757-0.414-1.268-1.401-1.608
		c-0.639-0.224-0.841-0.352-0.841-0.607c0-0.255,0.224-0.415,0.617-0.415c0.436,0,0.892,0.171,1.126,0.298l0.275-1.116
		c-0.318-0.159-0.849-0.309-1.455-0.309c-1.286,0-2.112,0.734-2.112,1.713c-0.012,0.618,0.402,1.203,1.484,1.565
		c0.596,0.203,0.756,0.33,0.756,0.606c0,0.268-0.202,0.427-0.691,0.427c-0.479,0-1.094-0.202-1.391-0.384L181.873,29.263z
		 M175.011,29.518h1.612v-3.002c0-0.148,0.012-0.298,0.054-0.404c0.117-0.299,0.383-0.606,0.829-0.606
		c0.585,0,0.818,0.457,0.818,1.128v2.885h1.613V26.44c0-1.531-0.796-2.244-1.857-2.244c-0.871,0-1.393,0.5-1.605,0.841h-0.031
		l-0.075-0.724h-1.4c0.021,0.468,0.043,1.011,0.043,1.66V29.518z M169.125,26.464l0.425-1.522c0.117-0.416,0.223-0.959,0.329-1.385
		h0.021c0.106,0.426,0.233,0.958,0.361,1.384l0.446,1.523H169.125z M170.941,27.676l0.553,1.842h1.752l-2.229-7.173h-2.124
		l-2.178,7.173h1.668l0.51-1.842H170.941z M160.309,27.624c0,0.095-0.011,0.19-0.032,0.276c-0.105,0.33-0.446,0.597-0.84,0.597
		c-0.361,0-0.638-0.202-0.638-0.618c0-0.618,0.659-0.82,1.51-0.82V27.624z M161.869,26.441c0-1.234-0.541-2.256-2.271-2.256
		c-0.946,0-1.658,0.267-2.019,0.468l0.298,1.043c0.339-0.213,0.901-0.395,1.434-0.395c0.797,0,0.946,0.395,0.946,0.683v0.064
		c-1.839,0-3.05,0.638-3.05,1.989c0,0.831,0.627,1.597,1.678,1.597c0.617,0,1.148-0.223,1.488-0.638h0.031l0.097,0.521h1.453
		c-0.063-0.288-0.085-0.767-0.085-1.256V26.441z M150.387,29.518h1.614v-3.002c0-0.148,0.01-0.298,0.053-0.404
		c0.117-0.299,0.383-0.606,0.829-0.606c0.585,0,0.818,0.457,0.818,1.128v2.885h1.613V26.44c0-1.531-0.796-2.244-1.858-2.244
		c-0.871,0-1.393,0.5-1.604,0.841h-0.032l-0.074-0.724h-1.4c0.021,0.468,0.042,1.011,0.042,1.66V29.518z M147.359,22.057
		c-0.52,0-0.858,0.351-0.858,0.809c0,0.446,0.328,0.809,0.838,0.809c0.541,0,0.87-0.362,0.87-0.809
		C148.198,22.407,147.879,22.057,147.359,22.057 M148.155,24.313h-1.612v5.204h1.612V24.313z M141.571,29.518h1.613v-2.639
		c0-0.129,0.011-0.257,0.032-0.363c0.105-0.5,0.51-0.82,1.104-0.82c0.181,0,0.309,0.022,0.436,0.043v-1.521
		c-0.117-0.021-0.191-0.032-0.341-0.032c-0.51,0-1.136,0.319-1.401,1.085h-0.042l-0.064-0.957h-1.38
		c0.032,0.447,0.043,0.947,0.043,1.713V29.518z M137.789,27.624c0,0.095-0.011,0.19-0.031,0.276c-0.106,0.33-0.446,0.597-0.84,0.597
		c-0.361,0-0.639-0.202-0.639-0.618c0-0.618,0.659-0.82,1.51-0.82V27.624z M139.349,26.441c0-1.234-0.541-2.256-2.272-2.256
		c-0.945,0-1.657,0.267-2.018,0.468l0.297,1.043c0.339-0.213,0.902-0.395,1.434-0.395c0.798,0,0.946,0.395,0.946,0.683v0.064
		c-1.839,0-3.049,0.638-3.049,1.989c0,0.831,0.626,1.597,1.677,1.597c0.617,0,1.149-0.223,1.489-0.638h0.032l0.095,0.521h1.454
		c-0.064-0.288-0.085-0.767-0.085-1.256V26.441z M127.867,29.518h1.614v-3.087c0-0.117,0.01-0.256,0.053-0.351
		c0.117-0.299,0.384-0.575,0.809-0.575c0.605,0,0.84,0.468,0.84,1.148v2.864h1.613v-3.034c0-1.574-0.785-2.287-1.815-2.287
		c-0.298,0-0.596,0.074-0.84,0.202c-0.255,0.127-0.468,0.309-0.638,0.542h-0.021v-2.989h-1.614V29.518z M123.257,23.345v0.969h-0.69
		v1.191h0.69v2.13c0,0.734,0.148,1.234,0.445,1.543c0.266,0.265,0.7,0.446,1.222,0.446c0.445,0,0.839-0.064,1.041-0.139
		l-0.012-1.223c-0.148,0.032-0.255,0.043-0.478,0.043c-0.479,0-0.637-0.288-0.637-0.916v-1.885h1.157v-1.191h-1.157v-1.404
		L123.257,23.345z M119.337,27.624c0,0.095-0.011,0.19-0.032,0.276c-0.106,0.33-0.446,0.597-0.839,0.597
		c-0.362,0-0.639-0.202-0.639-0.618c0-0.618,0.659-0.82,1.51-0.82V27.624z M120.898,26.441c0-1.234-0.542-2.256-2.272-2.256
		c-0.946,0-1.657,0.267-2.019,0.468l0.297,1.043c0.34-0.213,0.902-0.395,1.435-0.395c0.797,0,0.945,0.395,0.945,0.683v0.064
		c-1.839,0-3.049,0.638-3.049,1.989c0,0.831,0.627,1.597,1.678,1.597c0.616,0,1.148-0.223,1.488-0.638h0.032l0.095,0.521h1.455
		c-0.063-0.288-0.085-0.767-0.085-1.256V26.441z M109.171,29.518h1.603v-2.342l0.606-0.755l1.763,3.097h1.88l-2.486-4.119
		l2.369-3.054h-1.997l-1.613,2.384c-0.17,0.255-0.341,0.51-0.5,0.787h-0.021v-3.171h-1.603V29.518z M103.158,29.635
		c0.584,0,0.966-0.415,0.966-0.979c-0.01-0.595-0.392-0.988-0.943-0.988c-0.563,0-0.956,0.403-0.956,0.988
		C102.224,29.22,102.617,29.635,103.158,29.635 M98.591,27.196c0,0.13-0.01,0.258-0.032,0.374c-0.095,0.458-0.478,0.777-0.946,0.777
		c-0.669,0-1.105-0.554-1.105-1.437c0-0.82,0.372-1.481,1.116-1.481c0.499,0,0.85,0.362,0.946,0.788
		c0.021,0.096,0.021,0.213,0.021,0.298V27.196z M98.591,21.951v2.819H98.57c-0.234-0.351-0.723-0.585-1.371-0.585
		c-1.243,0-2.336,1.021-2.326,2.777c0,1.619,0.987,2.672,2.219,2.672c0.67,0,1.308-0.298,1.627-0.872h0.031l0.064,0.755h1.433
		c-0.021-0.351-0.043-0.969-0.043-1.554v-6.013H98.591z M89.858,26.326c0.042-0.428,0.319-1.056,0.999-1.056
		c0.744,0,0.914,0.66,0.914,1.056H89.858z M93.215,27.431c0.021-0.117,0.053-0.361,0.053-0.637c0-1.289-0.637-2.598-2.315-2.598
		c-1.806,0-2.623,1.457-2.623,2.777c0,1.629,1.008,2.65,2.772,2.65c0.701,0,1.349-0.106,1.879-0.329l-0.212-1.097
		c-0.435,0.149-0.881,0.225-1.433,0.225c-0.755,0-1.425-0.32-1.467-0.992H93.215z M78.557,29.518h1.571v-3.034
		c0-0.138,0.01-0.287,0.063-0.415c0.096-0.256,0.341-0.574,0.755-0.574c0.521,0,0.755,0.446,0.755,1.097v2.927h1.571v-3.045
		c0-0.138,0.021-0.298,0.053-0.415c0.117-0.308,0.372-0.563,0.755-0.563c0.521,0,0.765,0.437,0.765,1.191v2.832h1.571v-3.065
		c0-1.564-0.753-2.267-1.751-2.267c-0.383,0-0.702,0.096-0.989,0.255c-0.255,0.149-0.478,0.362-0.68,0.639h-0.021
		c-0.223-0.542-0.743-0.894-1.423-0.894c-0.882,0-1.35,0.489-1.573,0.83h-0.032l-0.063-0.702h-1.37
		c0.022,0.468,0.043,1.011,0.043,1.66V29.518z M72.597,29.635c0.584,0,0.966-0.415,0.966-0.979
		c-0.011-0.595-0.393-0.988-0.945-0.988c-0.563,0-0.955,0.403-0.955,0.988C71.663,29.22,72.055,29.635,72.597,29.635 M67.499,29.518
		h1.613v-2.639c0-0.129,0.011-0.257,0.032-0.363c0.106-0.5,0.51-0.82,1.105-0.82c0.18,0,0.308,0.022,0.435,0.043v-1.521
		c-0.117-0.021-0.191-0.032-0.34-0.032c-0.51,0-1.136,0.319-1.402,1.085H68.9l-0.064-0.957h-1.38
		c0.032,0.447,0.043,0.947,0.043,1.713V29.518z M60.794,23.599c0.138-0.032,0.383-0.063,0.734-0.063
		c1.402,0,2.274,0.787,2.274,2.278c0,1.714-0.967,2.524-2.444,2.514c-0.192,0-0.426,0-0.564-0.032V23.599z M59.181,29.485
		c0.393,0.054,0.998,0.106,1.837,0.106c1.402,0,2.561-0.297,3.315-0.925c0.679-0.585,1.178-1.533,1.178-2.906
		c0-1.267-0.467-2.151-1.21-2.704c-0.68-0.51-1.572-0.766-2.943-0.766c-0.808,0-1.583,0.063-2.177,0.16V29.485z"/>
	<path fill="#4D4D4D" d="M203.646,40.679h1.615v-2.64c0-0.129,0.011-0.257,0.032-0.362c0.105-0.5,0.511-0.82,1.105-0.82
		c0.181,0,0.308,0.021,0.437,0.043v-1.521c-0.117-0.021-0.191-0.031-0.341-0.031c-0.511,0-1.138,0.318-1.403,1.085h-0.042
		l-0.064-0.957h-1.381c0.032,0.447,0.042,0.947,0.042,1.713V40.679z M198.318,37.486c0.042-0.427,0.319-1.055,1-1.055
		c0.745,0,0.915,0.66,0.915,1.055H198.318z M201.678,38.592c0.021-0.116,0.053-0.361,0.053-0.638c0-1.289-0.638-2.597-2.317-2.597
		c-1.808,0-2.626,1.457-2.626,2.777c0,1.629,1.01,2.649,2.775,2.649c0.702,0,1.35-0.105,1.881-0.329l-0.212-1.096
		c-0.436,0.149-0.882,0.224-1.435,0.224c-0.757,0-1.427-0.319-1.47-0.991H201.678z M194.426,40.679v-4.014h1.03v-1.19h-1.042v-0.268
		c0-0.511,0.224-0.927,0.756-0.927c0.213,0,0.383,0.032,0.521,0.075l0.064-1.244c-0.224-0.054-0.5-0.106-0.852-0.106
		c-0.478,0-1.031,0.139-1.444,0.521c-0.457,0.426-0.648,1.118-0.648,1.746v0.203h-0.691v1.19h0.691v4.014H194.426z M189.344,34.76
		c0.425,0,0.732-0.341,0.732-0.755c0-0.426-0.318-0.744-0.732-0.744c-0.437,0-0.755,0.318-0.755,0.744
		c0,0.414,0.318,0.755,0.732,0.755H189.344z M187.1,34.76c0.425,0,0.733-0.341,0.733-0.755c0-0.426-0.319-0.744-0.723-0.744
		c-0.425,0-0.765,0.318-0.765,0.744C186.346,34.419,186.675,34.76,187.1,34.76 M188.823,38.784c0,0.096-0.01,0.191-0.032,0.277
		c-0.105,0.33-0.446,0.596-0.84,0.596c-0.361,0-0.639-0.202-0.639-0.618c0-0.617,0.66-0.819,1.511-0.819V38.784z M190.385,37.603
		c0-1.235-0.542-2.256-2.275-2.256c-0.947,0-1.659,0.266-2.02,0.468l0.298,1.043c0.34-0.213,0.902-0.396,1.435-0.396
		c0.798,0,0.947,0.396,0.947,0.684v0.063c-1.841,0-3.052,0.639-3.052,1.989c0,0.831,0.627,1.597,1.679,1.597
		c0.617,0,1.15-0.223,1.49-0.638h0.032l0.095,0.521h1.456c-0.064-0.288-0.085-0.768-0.085-1.256V37.603z M178.881,40.679h1.614
		v-3.087c0-0.117,0.012-0.257,0.054-0.352c0.116-0.298,0.383-0.575,0.809-0.575c0.606,0,0.841,0.469,0.841,1.149v2.864h1.615v-3.034
		c0-1.575-0.787-2.287-1.818-2.287c-0.298,0-0.596,0.074-0.84,0.202c-0.256,0.127-0.469,0.308-0.639,0.542h-0.021v-2.99h-1.614
		V40.679z M176.849,39.349c-0.245,0.106-0.543,0.171-0.925,0.171c-0.787,0-1.426-0.511-1.426-1.459
		c-0.011-0.853,0.542-1.459,1.394-1.459c0.425,0,0.712,0.074,0.904,0.16l0.255-1.202c-0.341-0.128-0.809-0.202-1.234-0.202
		c-1.935,0-2.976,1.244-2.976,2.767c0,1.629,1.072,2.66,2.753,2.66c0.617,0,1.159-0.105,1.445-0.244L176.849,39.349z
		 M166.153,40.339c0.404,0.223,1.211,0.445,2.03,0.445c1.968,0,2.881-1.021,2.881-2.223c0-1.012-0.584-1.672-1.849-2.142
		c-0.937-0.351-1.33-0.553-1.33-1.011c0-0.361,0.34-0.691,1.043-0.691c0.69,0,1.212,0.201,1.487,0.341l0.361-1.298
		c-0.425-0.202-1.009-0.362-1.828-0.362c-1.68,0-2.711,0.925-2.711,2.149c0,1.044,0.786,1.703,1.978,2.13
		c0.861,0.298,1.202,0.554,1.202,1.001c0,0.468-0.394,0.776-1.139,0.776c-0.691,0-1.372-0.224-1.797-0.446L166.153,40.339z
		 M160.389,40.795c0.584,0,0.967-0.414,0.967-0.979c-0.011-0.595-0.393-0.989-0.946-0.989c-0.562,0-0.956,0.404-0.956,0.989
		C159.454,40.381,159.847,40.795,160.389,40.795 M152.053,40.679h1.604v-2.343l0.607-0.755l1.765,3.098h1.882l-2.487-4.119
		l2.371-3.054h-1.999l-1.616,2.384c-0.171,0.255-0.341,0.51-0.5,0.787h-0.022v-3.171h-1.604V40.679z M141.728,40.679h1.615v-3.002
		c0-0.149,0.011-0.299,0.053-0.404c0.117-0.299,0.383-0.607,0.83-0.607c0.586,0,0.82,0.457,0.82,1.128v2.886h1.614v-3.077
		c0-1.532-0.797-2.244-1.859-2.244c-0.873,0-1.395,0.5-1.607,0.84h-0.032l-0.073-0.723h-1.402c0.021,0.468,0.042,1.011,0.042,1.66
		V40.679z M137.081,36.506c0.734,0,1.032,0.787,1.032,1.555c0,0.948-0.394,1.576-1.032,1.576c-0.691,0-1.063-0.671-1.063-1.565
		C136.017,37.305,136.315,36.506,137.081,36.506 M137.134,35.347c-1.682,0-2.786,1.073-2.786,2.767c0,1.682,1.169,2.682,2.689,2.682
		c1.395,0,2.743-0.871,2.743-2.777C139.781,36.441,138.718,35.347,137.134,35.347 M131.605,33.218c-0.521,0-0.861,0.351-0.861,0.809
		c0,0.446,0.329,0.808,0.84,0.808c0.542,0,0.871-0.361,0.871-0.808C132.444,33.568,132.125,33.218,131.605,33.218 M132.401,35.475
		h-1.615v5.204h1.615V35.475z M125.799,40.679h1.614v-2.64c0-0.129,0.012-0.257,0.032-0.362c0.107-0.5,0.511-0.82,1.106-0.82
		c0.181,0,0.309,0.021,0.436,0.043v-1.521c-0.117-0.021-0.19-0.031-0.34-0.031c-0.511,0-1.138,0.318-1.404,1.085h-0.042
		l-0.063-0.957h-1.381c0.031,0.447,0.042,0.947,0.042,1.713V40.679z M122.003,38.784c0,0.096-0.011,0.191-0.032,0.277
		c-0.106,0.33-0.447,0.596-0.84,0.596c-0.362,0-0.64-0.202-0.64-0.618c0-0.617,0.66-0.819,1.512-0.819V38.784z M123.565,37.603
		c0-1.235-0.542-2.256-2.275-2.256c-0.946,0-1.658,0.266-2.02,0.468l0.298,1.043c0.34-0.213,0.903-0.396,1.436-0.396
		c0.798,0,0.946,0.396,0.946,0.684v0.063c-1.841,0-3.052,0.639-3.052,1.989c0,0.831,0.627,1.597,1.679,1.597
		c0.617,0,1.15-0.223,1.49-0.638h0.032l0.095,0.521h1.456c-0.063-0.288-0.085-0.768-0.085-1.256V37.603z M115.495,40.679h1.573
		l-0.383-7.173h-2.126l-0.755,2.383c-0.244,0.798-0.489,1.745-0.681,2.576h-0.043c-0.158-0.842-0.371-1.735-0.605-2.566
		l-0.701-2.393h-2.159l-0.457,7.173h1.499l0.139-2.726c0.043-0.894,0.085-2.001,0.116-2.97h0.022c0.18,0.937,0.414,1.959,0.647,2.81
		l0.767,2.769h1.265l0.872-2.8c0.276-0.842,0.574-1.863,0.809-2.778h0.021c0,1.043,0.032,2.086,0.064,2.948L115.495,40.679z
		 M103.277,40.795c0.585,0,0.967-0.414,0.967-0.979c-0.01-0.595-0.393-0.989-0.944-0.989c-0.564,0-0.958,0.404-0.958,0.989
		C102.342,40.381,102.735,40.795,103.277,40.795 M98.695,38.357c0,0.129-0.011,0.257-0.032,0.374
		c-0.096,0.458-0.479,0.777-0.947,0.777c-0.67,0-1.107-0.555-1.107-1.438c0-0.82,0.373-1.48,1.118-1.48
		c0.5,0,0.851,0.361,0.947,0.787c0.021,0.097,0.021,0.214,0.021,0.3V38.357z M98.695,33.111v2.82h-0.021
		c-0.235-0.352-0.724-0.585-1.373-0.585c-1.244,0-2.339,1.021-2.328,2.776c0,1.619,0.988,2.672,2.222,2.672
		c0.67,0,1.308-0.298,1.627-0.871h0.032l0.064,0.755h1.434c-0.021-0.352-0.042-0.97-0.042-1.555v-6.013H98.695z M89.942,37.486
		c0.043-0.427,0.319-1.055,1-1.055c0.745,0,0.915,0.66,0.915,1.055H89.942z M93.302,38.592c0.022-0.116,0.053-0.361,0.053-0.638
		c0-1.289-0.637-2.597-2.317-2.597c-1.808,0-2.626,1.457-2.626,2.777c0,1.629,1.01,2.649,2.775,2.649
		c0.702,0,1.35-0.105,1.882-0.329l-0.213-1.096c-0.435,0.149-0.882,0.224-1.435,0.224c-0.755,0-1.426-0.319-1.468-0.991H93.302z
		 M78.619,40.679h1.572v-3.034c0-0.138,0.011-0.287,0.064-0.415c0.096-0.256,0.341-0.575,0.756-0.575
		c0.521,0,0.755,0.447,0.755,1.097v2.928h1.573v-3.045c0-0.139,0.021-0.299,0.053-0.415c0.117-0.309,0.373-0.564,0.756-0.564
		c0.521,0,0.766,0.438,0.766,1.192v2.832h1.572v-3.066c0-1.563-0.754-2.266-1.753-2.266c-0.383,0-0.702,0.096-0.99,0.255
		c-0.255,0.148-0.479,0.362-0.68,0.638h-0.022c-0.223-0.542-0.743-0.893-1.424-0.893c-0.883,0-1.351,0.488-1.574,0.83h-0.032
		l-0.064-0.702h-1.371c0.022,0.468,0.043,1.011,0.043,1.66V40.679z M72.632,40.795c0.584,0,0.967-0.414,0.967-0.979
		c-0.011-0.595-0.394-0.989-0.946-0.989c-0.563,0-0.956,0.404-0.956,0.989C71.697,40.381,72.09,40.795,72.632,40.795 M67.518,40.679
		h1.615v-2.64c0-0.129,0.01-0.257,0.031-0.362c0.107-0.5,0.511-0.82,1.106-0.82c0.181,0,0.309,0.021,0.436,0.043v-1.521
		c-0.117-0.021-0.191-0.031-0.34-0.031c-0.51,0-1.138,0.318-1.403,1.085H68.92l-0.064-0.957h-1.381
		c0.032,0.447,0.043,0.947,0.043,1.713V40.679z M60.796,34.76c0.138-0.032,0.383-0.064,0.734-0.064c1.404,0,2.277,0.788,2.277,2.279
		c0,1.714-0.968,2.523-2.447,2.513c-0.192,0-0.426,0-0.564-0.032V34.76z M59.181,40.646c0.393,0.053,0.999,0.105,1.838,0.105
		c1.405,0,2.564-0.297,3.319-0.925c0.68-0.585,1.179-1.533,1.179-2.905c0-1.268-0.467-2.151-1.211-2.704
		c-0.68-0.511-1.574-0.767-2.946-0.767c-0.808,0-1.584,0.064-2.179,0.16V40.646z"/>
	<path fill="#4D4D4D" d="M204.978,49.376c0.03-0.296,0.219-0.704,0.669-0.704c0.485,0,0.604,0.438,0.597,0.704H204.978z
		 M206.906,49.884c0.012-0.065,0.023-0.171,0.023-0.307c0-0.634-0.308-1.401-1.241-1.401c-0.922,0-1.407,0.75-1.407,1.549
		c0,0.881,0.55,1.454,1.484,1.454c0.414,0,0.757-0.077,1.005-0.183l-0.106-0.496c-0.225,0.077-0.461,0.13-0.798,0.13
		c-0.468,0-0.87-0.225-0.888-0.746H206.906z M202.891,51.12v-2.336h0.621v-0.543h-0.627v-0.148c0-0.354,0.119-0.657,0.479-0.657
		c0.137,0,0.231,0.023,0.314,0.054l0.047-0.562c-0.112-0.036-0.266-0.071-0.461-0.071c-0.254,0-0.538,0.077-0.751,0.278
		c-0.248,0.236-0.349,0.609-0.349,0.981v0.125h-0.39v0.543h0.39v2.336H202.891z M200.001,51.12h0.726v-4.204h-0.726V51.12z
		 M198.292,47.04c-0.242,0-0.407,0.172-0.407,0.396c0,0.213,0.159,0.391,0.4,0.391c0.254,0,0.414-0.178,0.414-0.391
		C198.694,47.212,198.54,47.04,198.292,47.04 M198.652,48.241h-0.726v2.879h0.726V48.241z M193.982,51.12h0.728v-1.728
		c0-0.077,0.006-0.153,0.029-0.219c0.082-0.218,0.284-0.408,0.567-0.408c0.403,0,0.557,0.32,0.557,0.734v1.62h0.727v-1.697
		c0-0.922-0.515-1.247-1.004-1.247c-0.185,0-0.355,0.047-0.504,0.13c-0.147,0.076-0.271,0.189-0.36,0.324h-0.012v-1.714h-0.728
		V51.12z M190.778,50.978c0.213,0.118,0.526,0.201,0.875,0.201c0.763,0,1.17-0.378,1.17-0.904c-0.006-0.426-0.242-0.691-0.768-0.876
		c-0.367-0.136-0.503-0.219-0.503-0.401c0-0.178,0.142-0.309,0.401-0.309c0.256,0,0.491,0.096,0.609,0.166l0.148-0.508
		c-0.172-0.095-0.449-0.171-0.769-0.171c-0.669,0-1.088,0.389-1.088,0.898c0,0.343,0.23,0.65,0.792,0.84
		c0.355,0.13,0.473,0.225,0.473,0.42c0,0.188-0.142,0.325-0.462,0.325c-0.26,0-0.572-0.112-0.731-0.214L190.778,50.978z
		 M188.437,47.703v0.538h-0.408v0.543h0.408v1.354c0,0.379,0.071,0.645,0.23,0.811c0.136,0.146,0.354,0.235,0.626,0.235
		c0.225,0,0.42-0.035,0.526-0.077l-0.012-0.549c-0.083,0.024-0.154,0.03-0.284,0.03c-0.278,0-0.372-0.178-0.372-0.533v-1.271h0.691
		v-0.543h-0.691v-0.739L188.437,47.703z M185.516,51.12h0.727v-1.496c0-0.077,0.006-0.154,0.019-0.219
		c0.064-0.331,0.307-0.551,0.649-0.551c0.09,0,0.154,0.006,0.22,0.019v-0.681c-0.06-0.011-0.102-0.017-0.172-0.017
		c-0.313,0-0.65,0.206-0.793,0.608h-0.018l-0.029-0.543h-0.626c0.019,0.254,0.023,0.537,0.023,0.928V51.12z M184.168,48.241h-0.728
		v1.737c0,0.083-0.011,0.166-0.041,0.226c-0.071,0.188-0.26,0.39-0.556,0.39c-0.385,0-0.539-0.307-0.539-0.786v-1.566h-0.727v1.69
		c0,0.94,0.479,1.253,0.999,1.253s0.805-0.295,0.929-0.496h0.018l0.035,0.432h0.632c-0.011-0.236-0.022-0.521-0.022-0.863V48.241z
		 M178.297,49.464c0-0.071,0.012-0.136,0.023-0.189c0.077-0.318,0.35-0.531,0.646-0.531c0.484,0,0.727,0.414,0.727,0.923
		c0,0.585-0.278,0.945-0.732,0.945c-0.314,0-0.568-0.213-0.646-0.509c-0.012-0.053-0.018-0.111-0.018-0.171V49.464z M177.571,50.31
		c0,0.296-0.012,0.615-0.023,0.811h0.62l0.035-0.432h0.012c0.207,0.354,0.539,0.496,0.911,0.496c0.65,0,1.306-0.514,1.306-1.549
		c0.006-0.876-0.496-1.46-1.199-1.46c-0.432,0-0.746,0.183-0.923,0.46h-0.012v-1.72h-0.727V50.31z M174.472,49.376
		c0.03-0.296,0.219-0.704,0.668-0.704c0.485,0,0.604,0.438,0.598,0.704H174.472z M176.399,49.884
		c0.012-0.065,0.024-0.171,0.024-0.307c0-0.634-0.308-1.401-1.241-1.401c-0.923,0-1.407,0.75-1.407,1.549
		c0,0.881,0.549,1.454,1.484,1.454c0.414,0,0.756-0.077,1.005-0.183l-0.107-0.496c-0.224,0.077-0.461,0.13-0.798,0.13
		c-0.467,0-0.869-0.225-0.887-0.746H176.399z M172.645,48.921h-1.406v0.573h0.703v1c-0.094,0.041-0.284,0.076-0.55,0.076
		c-0.828,0-1.384-0.538-1.384-1.442c0-0.929,0.598-1.433,1.448-1.433c0.421,0,0.687,0.071,0.905,0.173l0.159-0.592
		c-0.183-0.083-0.567-0.184-1.058-0.184c-1.319,0-2.211,0.804-2.218,2.07c0,0.603,0.201,1.13,0.557,1.467
		c0.378,0.36,0.892,0.531,1.566,0.531c0.526,0,1.022-0.13,1.276-0.225V48.921z M165.569,49.872c0,0.078-0.006,0.148-0.023,0.214
		c-0.07,0.312-0.331,0.514-0.627,0.514c-0.462,0-0.722-0.384-0.722-0.917c0-0.532,0.26-0.946,0.728-0.946
		c0.332,0,0.562,0.23,0.627,0.51c0.012,0.059,0.018,0.136,0.018,0.194V49.872z M165.569,46.916v1.632h-0.012
		c-0.13-0.213-0.414-0.372-0.811-0.372c-0.691,0-1.294,0.573-1.287,1.537c0,0.887,0.543,1.472,1.234,1.472
		c0.414,0,0.763-0.201,0.935-0.52h0.012l0.035,0.455h0.644c-0.012-0.195-0.022-0.515-0.022-0.811v-3.394H165.569z M159.698,51.12
		h0.728v-1.697c0-0.083,0.012-0.172,0.035-0.231c0.076-0.219,0.277-0.426,0.567-0.426c0.397,0,0.55,0.314,0.55,0.729v1.626h0.728
		v-1.709c0-0.91-0.521-1.235-1.022-1.235c-0.479,0-0.793,0.271-0.923,0.496h-0.018l-0.035-0.431h-0.632
		c0.012,0.248,0.022,0.525,0.022,0.856V51.12z M158.35,48.241h-0.728v1.737c0,0.083-0.012,0.166-0.041,0.226
		c-0.07,0.188-0.26,0.39-0.556,0.39c-0.385,0-0.539-0.307-0.539-0.786v-1.566h-0.726v1.69c0,0.94,0.478,1.253,0.999,1.253
		c0.52,0,0.804-0.295,0.928-0.496h0.018l0.035,0.432h0.632c-0.011-0.236-0.022-0.521-0.022-0.863V48.241z M150.889,49.376
		c0.029-0.296,0.219-0.704,0.668-0.704c0.485,0,0.604,0.438,0.598,0.704H150.889z M152.816,49.884
		c0.012-0.065,0.024-0.171,0.024-0.307c0-0.634-0.308-1.401-1.241-1.401c-0.923,0-1.407,0.75-1.407,1.549
		c0,0.881,0.549,1.454,1.484,1.454c0.414,0,0.756-0.077,1.004-0.183l-0.106-0.496c-0.224,0.077-0.461,0.13-0.798,0.13
		c-0.467,0-0.87-0.225-0.887-0.746H152.816z M148.666,47.04c-0.241,0-0.406,0.172-0.406,0.396c0,0.213,0.159,0.391,0.4,0.391
		c0.254,0,0.414-0.178,0.414-0.391C149.068,47.212,148.914,47.04,148.666,47.04 M149.026,48.241H148.3v2.879h0.726V48.241z
		 M146.254,49.86c0,0.083-0.007,0.184-0.029,0.255c-0.083,0.266-0.32,0.443-0.592,0.443c-0.455,0-0.704-0.396-0.704-0.888
		c0-0.585,0.302-0.94,0.71-0.94c0.308,0,0.515,0.201,0.592,0.468c0.017,0.059,0.023,0.124,0.023,0.194V49.86z M146.981,49.067
		c0-0.396,0.012-0.632,0.023-0.826h-0.633l-0.028,0.384h-0.013c-0.136-0.237-0.39-0.449-0.834-0.449
		c-0.691,0-1.306,0.573-1.306,1.519c0,0.817,0.508,1.407,1.223,1.407c0.386,0,0.676-0.171,0.841-0.425h0.012v0.248
		c0,0.621-0.355,0.87-0.828,0.87c-0.349,0-0.656-0.113-0.839-0.219l-0.16,0.55c0.248,0.146,0.638,0.229,1.005,0.229
		c0.396,0,0.816-0.083,1.112-0.348c0.301-0.272,0.425-0.704,0.425-1.307V49.067z M141.767,48.701c0.497,0,0.698,0.521,0.698,0.97
		c0,0.586-0.29,0.988-0.704,0.988c-0.438,0-0.716-0.42-0.716-0.977C141.045,49.204,141.252,48.701,141.767,48.701 M141.784,48.176
		c-0.869,0-1.488,0.579-1.488,1.525c0,0.929,0.632,1.483,1.441,1.483c0.734,0,1.479-0.472,1.479-1.531
		C143.215,48.777,142.642,48.176,141.784,48.176 M138.397,51.12h0.726v-4.204h-0.726V51.12z M135.79,48.701
		c0.496,0,0.698,0.521,0.698,0.97c0,0.586-0.29,0.988-0.704,0.988c-0.438,0-0.716-0.42-0.716-0.977
		C135.068,49.204,135.275,48.701,135.79,48.701 M135.807,48.176c-0.869,0-1.489,0.579-1.489,1.525c0,0.929,0.632,1.483,1.442,1.483
		c0.732,0,1.478-0.472,1.478-1.531C137.238,48.777,136.665,48.176,135.807,48.176 M131.698,46.916h-0.727v4.204h0.727v-0.981
		l0.242-0.29l0.828,1.271h0.893l-1.218-1.703l1.07-1.176h-0.875l-0.704,0.928c-0.071,0.1-0.153,0.225-0.224,0.337h-0.013V46.916z
		 M129.109,47.791c0.207,0,0.354-0.166,0.354-0.361c0-0.212-0.153-0.366-0.354-0.366c-0.207,0-0.366,0.159-0.366,0.366
		c0,0.195,0.153,0.361,0.354,0.361H129.109z M127.926,47.791c0.213,0,0.36-0.166,0.36-0.361c0-0.212-0.153-0.366-0.349-0.366
		c-0.212,0-0.372,0.159-0.372,0.366C127.566,47.625,127.72,47.791,127.926,47.791 M128.932,50.108c0,0.054,0,0.107-0.019,0.16
		c-0.07,0.207-0.277,0.396-0.573,0.396c-0.231,0-0.414-0.13-0.414-0.414c0-0.438,0.491-0.544,1.006-0.538V50.108z M129.641,49.394
		c0-0.633-0.266-1.218-1.188-1.218c-0.456,0-0.827,0.124-1.041,0.254l0.143,0.473c0.194-0.125,0.49-0.214,0.773-0.214
		c0.51,0,0.586,0.314,0.586,0.504v0.048c-1.064-0.007-1.709,0.365-1.709,1.088c0,0.438,0.325,0.856,0.904,0.856
		c0.379,0,0.681-0.159,0.853-0.384h0.018l0.053,0.319h0.656c-0.036-0.178-0.047-0.433-0.047-0.692V49.394z M123.463,51.12h0.727
		v-1.697c0-0.083,0.011-0.172,0.035-0.231c0.077-0.219,0.278-0.426,0.568-0.426c0.396,0,0.55,0.314,0.55,0.729v1.626h0.727v-1.709
		c0-0.91-0.52-1.235-1.022-1.235c-0.479,0-0.792,0.271-0.922,0.496h-0.019l-0.036-0.431h-0.632c0.012,0.248,0.024,0.525,0.024,0.856
		V51.12z M119.602,48.241l1.058,2.638c0.03,0.071,0.036,0.112,0.036,0.142c0,0.035-0.012,0.077-0.041,0.13
		c-0.101,0.195-0.261,0.366-0.401,0.454c-0.148,0.107-0.297,0.171-0.42,0.201l0.164,0.609c0.179-0.024,0.474-0.118,0.764-0.367
		c0.337-0.295,0.603-0.773,0.999-1.848l0.721-1.959h-0.774l-0.449,1.533c-0.06,0.184-0.112,0.402-0.153,0.562h-0.018
		c-0.041-0.159-0.106-0.378-0.165-0.555l-0.516-1.54H119.602z M118.685,48.921h-1.406v0.573h0.704v1
		c-0.095,0.041-0.284,0.076-0.55,0.076c-0.829,0-1.384-0.538-1.384-1.442c0-0.929,0.597-1.433,1.448-1.433
		c0.42,0,0.686,0.071,0.904,0.173l0.159-0.592c-0.183-0.083-0.567-0.184-1.058-0.184c-1.318,0-2.21,0.804-2.217,2.07
		c0,0.603,0.2,1.13,0.556,1.467c0.378,0.36,0.893,0.531,1.566,0.531c0.526,0,1.022-0.13,1.276-0.225V48.921z M111.012,51.12h0.727
		v-1.496c0-0.077,0.006-0.154,0.018-0.219c0.064-0.331,0.308-0.551,0.65-0.551c0.088,0,0.154,0.006,0.22,0.019v-0.681
		c-0.061-0.011-0.102-0.017-0.173-0.017c-0.312,0-0.649,0.206-0.792,0.608h-0.018l-0.029-0.543h-0.626
		c0.018,0.254,0.023,0.537,0.023,0.928V51.12z M108.99,47.791c0.207,0,0.354-0.166,0.354-0.361c0-0.212-0.153-0.366-0.354-0.366
		c-0.207,0-0.366,0.159-0.366,0.366c0,0.195,0.153,0.361,0.354,0.361H108.99z M107.802,47.791c0.212,0,0.359-0.166,0.359-0.361
		c0-0.212-0.153-0.366-0.349-0.366c-0.212,0-0.372,0.159-0.372,0.366C107.441,47.625,107.595,47.791,107.802,47.791 M109.664,48.241
		h-0.727v1.737c0,0.083-0.012,0.166-0.041,0.226c-0.071,0.188-0.261,0.39-0.556,0.39c-0.386,0-0.539-0.307-0.539-0.786v-1.566
		h-0.727v1.69c0,0.94,0.479,1.253,0.998,1.253c0.521,0,0.806-0.295,0.93-0.496h0.018l0.035,0.432h0.632
		c-0.012-0.236-0.023-0.521-0.023-0.863V48.241z M105.448,51.12v-2.336h0.621v-0.543h-0.627v-0.148c0-0.354,0.119-0.657,0.479-0.657
		c0.136,0,0.23,0.023,0.313,0.054l0.047-0.562c-0.111-0.036-0.266-0.071-0.461-0.071c-0.254,0-0.538,0.077-0.751,0.278
		c-0.248,0.236-0.348,0.609-0.348,0.981v0.125h-0.391v0.543h0.391v2.336H105.448z M98.91,51.12h0.727v-1.697
		c0-0.083,0.012-0.172,0.035-0.231c0.077-0.219,0.278-0.426,0.568-0.426c0.397,0,0.55,0.314,0.55,0.729v1.626h0.727v-1.709
		c0-0.91-0.52-1.235-1.022-1.235c-0.48,0-0.793,0.271-0.923,0.496h-0.018l-0.035-0.431h-0.632c0.011,0.248,0.023,0.525,0.023,0.856
		V51.12z M95.812,49.376c0.029-0.296,0.219-0.704,0.668-0.704c0.485,0,0.604,0.438,0.598,0.704H95.812z M97.739,49.884
		c0.012-0.065,0.024-0.171,0.024-0.307c0-0.634-0.307-1.401-1.241-1.401c-0.923,0-1.407,0.75-1.407,1.549
		c0,0.881,0.549,1.454,1.483,1.454c0.415,0,0.757-0.077,1.005-0.183L97.497,50.5c-0.224,0.077-0.461,0.13-0.798,0.13
		c-0.467,0-0.87-0.225-0.887-0.746H97.739z M91.355,51.12h0.726v-1.697c0-0.083,0.012-0.172,0.036-0.231
		c0.077-0.219,0.278-0.426,0.568-0.426c0.396,0,0.55,0.314,0.55,0.729v1.626h0.726v-1.709c0-0.91-0.52-1.235-1.022-1.235
		c-0.479,0-0.793,0.271-0.923,0.496h-0.018l-0.035-0.431h-0.632c0.012,0.248,0.024,0.525,0.024,0.856V51.12z M87.411,51.12h0.727
		v-1.697c0-0.083,0.012-0.172,0.035-0.231c0.077-0.219,0.278-0.426,0.568-0.426c0.397,0,0.55,0.314,0.55,0.729v1.626h0.727v-1.709
		c0-0.91-0.52-1.235-1.022-1.235c-0.48,0-0.793,0.271-0.923,0.496h-0.018l-0.035-0.431h-0.632c0.011,0.248,0.023,0.525,0.023,0.856
		V51.12z M85.702,47.04c-0.242,0-0.407,0.172-0.407,0.396c0,0.213,0.159,0.391,0.401,0.391c0.254,0,0.414-0.178,0.414-0.391
		C86.104,47.212,85.95,47.04,85.702,47.04 M86.063,48.241h-0.726v2.879h0.726V48.241z M82.818,47.703v0.538H82.41v0.543h0.408v1.354
		c0,0.379,0.07,0.645,0.23,0.811c0.136,0.146,0.354,0.235,0.626,0.235c0.225,0,0.42-0.035,0.526-0.077l-0.012-0.549
		c-0.082,0.024-0.153,0.03-0.283,0.03c-0.278,0-0.373-0.178-0.373-0.533v-1.271h0.692v-0.543h-0.692v-0.739L82.818,47.703z
		 M79.205,51.12h2.423v-0.579h-1.513v-0.013c0.148-0.152,0.284-0.318,0.426-0.49l1.052-1.354v-0.442h-2.281v0.578h1.394v0.012
		c-0.147,0.166-0.271,0.308-0.419,0.485l-1.082,1.385V51.12z M76.764,51.12h0.726v-1.496c0-0.077,0.006-0.154,0.018-0.219
		c0.065-0.331,0.307-0.551,0.65-0.551c0.089,0,0.154,0.006,0.219,0.019v-0.681c-0.059-0.011-0.101-0.017-0.172-0.017
		c-0.313,0-0.65,0.206-0.792,0.608h-0.017l-0.03-0.543H76.74c0.018,0.254,0.024,0.537,0.024,0.928V51.12z M74.901,47.791
		c0.207,0,0.354-0.166,0.354-0.361c0-0.212-0.153-0.366-0.354-0.366c-0.207,0-0.366,0.159-0.366,0.366
		c0,0.195,0.153,0.361,0.354,0.361H74.901z M73.719,47.791c0.212,0,0.36-0.166,0.36-0.361c0-0.212-0.154-0.366-0.349-0.366
		c-0.212,0-0.372,0.159-0.372,0.366C73.358,47.625,73.512,47.791,73.719,47.791 M74.724,50.108c0,0.054,0,0.107-0.018,0.16
		c-0.071,0.207-0.278,0.396-0.574,0.396c-0.23,0-0.414-0.13-0.414-0.414c0-0.438,0.491-0.544,1.006-0.538V50.108z M75.433,49.394
		c0-0.633-0.266-1.218-1.188-1.218c-0.456,0-0.828,0.124-1.041,0.254l0.142,0.473c0.195-0.125,0.49-0.214,0.774-0.214
		c0.509,0,0.586,0.314,0.586,0.504v0.048c-1.065-0.007-1.708,0.365-1.708,1.088c0,0.438,0.324,0.856,0.904,0.856
		c0.378,0,0.68-0.159,0.851-0.384h0.018l0.053,0.319h0.656c-0.035-0.178-0.047-0.433-0.047-0.692V49.394z M69.255,51.12h0.727
		v-1.728c0-0.077,0.006-0.153,0.029-0.219c0.083-0.218,0.284-0.408,0.568-0.408c0.402,0,0.556,0.32,0.556,0.734v1.62h0.727v-1.697
		c0-0.922-0.514-1.247-1.005-1.247c-0.183,0-0.355,0.047-0.503,0.13c-0.148,0.076-0.272,0.189-0.36,0.324h-0.012v-1.714h-0.727
		V51.12z M68.054,50.494c-0.142,0.059-0.325,0.111-0.573,0.111c-0.497,0-0.881-0.337-0.881-0.929
		c-0.006-0.526,0.325-0.934,0.881-0.934c0.26,0,0.431,0.053,0.55,0.111l0.13-0.549c-0.166-0.071-0.438-0.13-0.704-0.13
		c-1.011,0-1.601,0.667-1.601,1.531c0,0.893,0.585,1.472,1.483,1.472c0.361,0,0.662-0.077,0.816-0.147L68.054,50.494z
		 M63.999,50.108c0,0.054,0,0.107-0.017,0.16c-0.071,0.207-0.278,0.396-0.574,0.396c-0.231,0-0.414-0.13-0.414-0.414
		c0-0.438,0.491-0.544,1.005-0.538V50.108z M64.708,49.394c0-0.633-0.266-1.218-1.188-1.218c-0.455,0-0.828,0.124-1.04,0.254
		l0.141,0.473c0.195-0.125,0.491-0.214,0.775-0.214c0.509,0,0.586,0.314,0.586,0.504v0.048c-1.065-0.007-1.709,0.365-1.709,1.088
		c0,0.438,0.325,0.856,0.904,0.856c0.379,0,0.68-0.159,0.852-0.384h0.018L64.1,51.12h0.655c-0.035-0.178-0.047-0.433-0.047-0.692
		V49.394z M59.181,51.12h0.726v-1.697h1.467v-0.591h-1.467V47.73h1.579v-0.596h-2.305V51.12z"/>
</g>
</svg>
